# xmcd CD database file
#
# Track frame offsets:
#	150
#	17014
#	29635
#	47583
#	60296
#	74778
#	85044
#	100249
#	120306
#	136560
#	144644
#	151446
#
# Disc length: 2068 seconds
#
# Revision: 0
# Processed by: cddbd v1.5.1PL2 Copyright (c) Steve Scherf et al.
# Submitted via: CDex 1.51
#
DISCID=9908120c
DTITLE=The Prozac Blues Band - The Several Mood Of...
DYEAR=2005
DGENRE=Blues
TTITLE0=Gold Star Elephant Stamp
TTITLE1=Red Tool Box
TTITLE2=Man Boobies
TTITLE3=Dispatched
TTITLE4=Madem Moselle
TTITLE5=Blue Ukulele
TTITLE6=Kitty
TTITLE7=Handles Waltz
TTITLE8=Baby One More Time
TTITLE9=A Little Deeper
TTITLE10=Gimme Gimme Gimme
TTITLE11=Gimme Reprise
EXTD=YEAR: 2005
EXTT0=
EXTT1=
EXTT2=
EXTT3=
EXTT4=
EXTT5=
EXTT6=
EXTT7=
EXTT8=
EXTT9=
EXTT10=
EXTT11=
PLAYORDER=
